<svg width="312" height="46" viewBox="0 0 312 46" fill="none" xmlns="http://www.w3.org/2000/svg">
<path d="M2.76562 1.39062C3.76562 1.42187 4.64062 1.4375 5.39062 1.4375C6.14062 1.40625 6.75 1.39062 7.21875 1.39062H8.57812C8.92188 1.35938 9.34375 1.34375 9.84375 1.34375C10.2812 1.34375 10.8125 1.34375 11.4375 1.34375C12.0625 1.34375 12.7812 1.35938 13.5938 1.39062C13.8438 2.26562 14.125 3.125 14.4375 3.96875C14.7812 4.78125 15.0781 5.51562 15.3281 6.17188C15.6406 6.95312 15.9531 7.6875 16.2656 8.375C16.5781 9.0625 16.9531 9.89062 17.3906 10.8594C17.7656 11.6719 18.2188 12.6719 18.75 13.8594C19.2812 15.0156 19.9062 16.3438 20.625 17.8438C20.9688 16.875 21.2812 15.9844 21.5625 15.1719C21.875 14.3594 22.1406 13.6562 22.3594 13.0625C22.6094 12.375 22.8125 11.75 22.9688 11.1875C23.125 10.625 23.2969 9.9375 23.4844 9.125C23.6406 8.4375 23.8125 7.60938 24 6.64062C24.2188 5.67188 24.4375 4.54688 24.6562 3.26562C25.5625 3.26562 26.375 3.26562 27.0938 3.26562C27.8125 3.26562 28.4375 3.25 28.9688 3.21875C29.5625 3.21875 30.0938 3.20312 30.5625 3.17188C31.0625 3.17188 31.7344 3.14063 32.5781 3.07812C33.2969 3.01562 34.25 2.96875 35.4375 2.9375C36.6562 2.875 38.1562 2.79688 39.9375 2.70312C39.2812 3.17188 38.75 3.64062 38.3438 4.10938C37.9688 4.54688 37.6719 4.9375 37.4531 5.28125C37.2031 5.6875 37.0469 6.07812 36.9844 6.45312C36.9219 6.76562 36.8594 7.48438 36.7969 8.60938C36.7656 9.73438 36.7188 11.0781 36.6562 12.6406C36.625 14.1719 36.5938 15.8125 36.5625 17.5625C36.5625 19.3125 36.5781 20.9688 36.6094 22.5312C36.6406 24.0938 36.6875 25.4531 36.75 26.6094C36.8438 27.7344 36.9688 28.4531 37.125 28.7656C37.3438 29.1406 37.6406 29.5781 38.0156 30.0781C38.3594 30.5156 38.7969 31.0156 39.3281 31.5781C39.8906 32.1406 40.625 32.7656 41.5312 33.4531C40.0938 33.5156 38.8906 33.5625 37.9219 33.5938C36.9844 33.625 36.2031 33.6562 35.5781 33.6875C34.8594 33.7188 34.2812 33.7344 33.8438 33.7344C33.375 33.7344 32.7344 33.75 31.9219 33.7812C31.2031 33.8125 30.25 33.8594 29.0625 33.9219C27.875 33.9531 26.3438 34.0156 24.4688 34.1094C24.9062 33.6094 25.3125 33.1094 25.6875 32.6094C26.0625 32.1094 26.375 31.6562 26.625 31.25C26.9375 30.7812 27.2031 30.3281 27.4219 29.8906C27.6406 29.2969 27.8125 28.2188 27.9375 26.6562C28.0625 25.3125 28.1562 23.3906 28.2188 20.8906C28.2812 18.3594 28.2812 14.9688 28.2188 10.7188C27.625 11.6875 27.0938 12.6562 26.625 13.625C26.1875 14.5625 25.7969 15.4219 25.4531 16.2031C25.0781 17.1094 24.7344 17.9844 24.4219 18.8281C24.1094 19.7031 23.7812 20.6719 23.4375 21.7344C23.125 22.6406 22.75 23.7188 22.3125 24.9688C21.9062 26.2188 21.4375 27.5938 20.9062 29.0938L19.125 29.1875C18.875 27.9375 18.625 26.8125 18.375 25.8125C18.125 24.7812 17.875 23.9062 17.625 23.1875C17.3438 22.3438 17.0625 21.5938 16.7812 20.9375C16.4688 20.2812 16.125 19.5469 15.75 18.7344C15.4062 18.0469 14.9844 17.2344 14.4844 16.2969C14.0156 15.3594 13.4688 14.3125 12.8438 13.1562C12.5312 16.3438 12.3438 18.9375 12.2812 20.9375C12.2188 22.9062 12.2188 24.4375 12.2812 25.5312C12.3438 26.8438 12.4375 27.7969 12.5625 28.3906C12.75 28.9219 13.0469 29.5156 13.4531 30.1719C13.7969 30.7344 14.2656 31.4062 14.8594 32.1875C15.4844 32.9375 16.2812 33.7812 17.25 34.7188C16.5625 34.7188 15.8438 34.7188 15.0938 34.7188C14.3438 34.7188 13.6562 34.7344 13.0312 34.7656C12.2812 34.7969 11.5469 34.8125 10.8281 34.8125C10.0781 34.8438 9.20312 34.8906 8.20312 34.9531C7.32812 35.0156 6.28125 35.0781 5.0625 35.1406C3.84375 35.2031 2.4375 35.3125 0.84375 35.4688C1.53125 35.0312 2.09375 34.6094 2.53125 34.2031C2.96875 33.7656 3.3125 33.375 3.5625 33.0312C3.875 32.625 4.10938 32.2188 4.26562 31.8125C4.35938 31.5625 4.4375 31.0156 4.5 30.1719C4.59375 29.3281 4.67188 28.2969 4.73438 27.0781C4.82812 25.8594 4.89062 24.5 4.92188 23C4.98438 21.5 5.03125 19.9844 5.0625 18.4531C5.125 16.8906 5.17188 15.375 5.20312 13.9062C5.23438 12.4062 5.25 11.0625 5.25 9.875C5.28125 8.65625 5.29688 7.64062 5.29688 6.82812C5.29688 6.01562 5.29688 5.5 5.29688 5.28125C5.20312 4.8125 5.0625 4.34375 4.875 3.875C4.71875 3.46875 4.46875 3.04688 4.125 2.60938C3.78125 2.17187 3.32812 1.76562 2.76562 1.39062ZM44.5781 16.0156C44.7344 15.8281 44.8281 15.4844 44.8594 14.9844C44.9219 14.4531 45.0469 13.8594 45.2344 13.2031C45.4531 12.5469 45.8125 11.8594 46.3125 11.1406C46.8125 10.4219 47.625 9.75 48.75 9.125C49.8438 8.5 50.9062 8.125 51.9375 8C52.9688 7.875 53.9531 7.92188 54.8906 8.14062C55.8281 8.35938 56.7031 8.70312 57.5156 9.17188C58.3594 9.64062 59.125 10.1562 59.8125 10.7188C60.2812 11.0938 60.6562 11.6406 60.9375 12.3594C61.2188 13.0469 61.4375 13.8281 61.5938 14.7031C61.75 15.5781 61.8594 16.5 61.9219 17.4688C62.0156 18.4062 62.0781 19.3281 62.1094 20.2344C62.1406 21.1094 62.1562 21.9219 62.1562 22.6719C62.1875 23.3906 62.25 23.9844 62.3438 24.4531C62.4688 25.1406 62.6875 25.7344 63 26.2344C63.3125 26.7031 63.6562 27.1094 64.0312 27.4531C64.4062 27.7656 64.7812 28.0156 65.1562 28.2031C65.5312 28.3906 65.8594 28.5312 66.1406 28.625C66.3281 28.7188 66.5 28.7812 66.6562 28.8125C66.9688 28.9375 67.1875 28.9375 67.3125 28.8125C67.125 29.25 66.9531 29.625 66.7969 29.9375C66.6406 30.25 66.5156 30.5156 66.4219 30.7344C66.2969 30.9844 66.1875 31.1875 66.0938 31.3438C66 31.5312 65.8906 31.7031 65.7656 31.8594C65.6719 32.0156 65.5469 32.1875 65.3906 32.375C65.2344 32.5625 65.0781 32.7656 64.9219 32.9844C64.5156 32.8281 64.125 32.6406 63.75 32.4219C63.4062 32.2031 63.0938 32 62.8125 31.8125C62.4688 31.5938 62.1562 31.375 61.875 31.1562C61.5938 30.9375 61.3281 30.6875 61.0781 30.4062C60.8594 30.1562 60.625 29.8906 60.375 29.6094C60.1562 29.3281 59.9688 29.0156 59.8125 28.6719C59.625 29.0781 59.1719 29.6562 58.4531 30.4062C57.7656 31.1562 56.8594 31.8438 55.7344 32.4688C54.6094 33.0625 53.2969 33.4844 51.7969 33.7344C50.3281 33.9844 48.7031 33.8125 46.9219 33.2188C46.1406 32.9688 45.4062 32.6094 44.7188 32.1406C44.0312 31.6406 43.4375 31.0469 42.9375 30.3594C42.4688 29.6719 42.125 28.8906 41.9062 28.0156C41.7188 27.1094 41.7344 26.1094 41.9531 25.0156C42.1719 23.9219 42.5625 23 43.125 22.25C43.6875 21.5 44.3594 20.8906 45.1406 20.4219C45.9219 19.9531 46.7969 19.5938 47.7656 19.3438C48.7344 19.0938 49.7344 18.9219 50.7656 18.8281C51.5781 18.7969 52.3906 18.8438 53.2031 18.9688C53.8906 19.0938 54.6094 19.3281 55.3594 19.6719C56.1094 19.9844 56.75 20.4688 57.2812 21.125C57.25 19.4688 57.1875 18.1562 57.0938 17.1875C57.0312 16.1875 56.9688 15.4219 56.9062 14.8906C56.7812 14.2656 56.6719 13.8281 56.5781 13.5781C56.4219 13.3594 56.25 13.1094 56.0625 12.8281C55.9062 12.5469 55.7031 12.2969 55.4531 12.0781C55.2031 11.8281 54.8906 11.625 54.5156 11.4688C54.1406 11.3125 53.7031 11.25 53.2031 11.2812C52.6719 11.3125 52.25 11.4531 51.9375 11.7031C51.625 11.9531 51.375 12.25 51.1875 12.5938C51.0312 12.9062 50.9375 13.25 50.9062 13.625C50.875 14 50.8906 14.3281 50.9531 14.6094C51.0156 14.7969 51.1094 15 51.2344 15.2188C51.3594 15.4062 51.5312 15.6094 51.75 15.8281C51.9688 16.0469 52.2656 16.2344 52.6406 16.3906C51.9219 16.4844 51.2812 16.5625 50.7188 16.625C50.1562 16.6562 49.6719 16.7031 49.2656 16.7656C48.7969 16.8281 48.3906 16.875 48.0469 16.9062C47.7031 16.9375 47.2969 17 46.8281 17.0938C46.4219 17.1562 45.9219 17.2344 45.3281 17.3281C44.7344 17.4219 44.0469 17.5469 43.2656 17.7031C43.4531 17.4844 43.625 17.2812 43.7812 17.0938C43.9375 16.875 44.0781 16.6875 44.2031 16.5312C44.3281 16.3438 44.4531 16.1719 44.5781 16.0156ZM51.6094 21.5938C51.0469 21.625 50.4844 21.7656 49.9219 22.0156C49.3594 22.2344 48.8594 22.5625 48.4219 23C47.9844 23.4062 47.6094 23.8906 47.2969 24.4531C47.0156 24.9844 46.875 25.5781 46.875 26.2344C46.875 26.8906 47.0312 27.4688 47.3438 27.9688C47.6875 28.4375 48.125 28.8281 48.6562 29.1406C49.2188 29.4531 49.8125 29.6406 50.4375 29.7031C51.0938 29.7656 51.7344 29.7031 52.3594 29.5156C52.9531 29.2969 53.5156 28.9531 54.0469 28.4844C54.5781 27.9844 55.0312 27.4531 55.4062 26.8906C55.7812 26.2969 56.0469 25.7188 56.2031 25.1562C56.3594 24.5625 56.375 24.0781 56.25 23.7031C56 22.8906 55.4375 22.3281 54.5625 22.0156C53.6875 21.6719 52.7031 21.5312 51.6094 21.5938ZM88.9688 15.125C88.875 14.5 88.7969 13.9844 88.7344 13.5781C88.6719 13.1406 88.6094 12.7969 88.5469 12.5469C88.4844 12.2344 88.4375 12 88.4062 11.8438C88.3438 11.6875 88.2656 11.5156 88.1719 11.3281C88.1094 11.1719 88 10.9844 87.8438 10.7656C87.7188 10.5469 87.5625 10.2969 87.375 10.0156C87.7812 10.1406 88.1875 10.2188 88.5938 10.25C89.0312 10.2812 89.4375 10.3125 89.8125 10.3438C90.2188 10.375 90.6406 10.375 91.0781 10.3438C91.5156 10.3438 92.0156 10.3281 92.5781 10.2969C93.0781 10.2656 93.6719 10.25 94.3594 10.25C95.0781 10.2188 95.8906 10.1719 96.7969 10.1094C96.2656 10.2344 95.8125 10.4531 95.4375 10.7656C95.0938 11.0469 94.7969 11.3594 94.5469 11.7031C94.2656 12.0781 94.0312 12.4844 93.8438 12.9219C93.6875 13.3281 93.5938 14.1094 93.5625 15.2656C93.5312 16.3906 93.5312 17.7344 93.5625 19.2969C93.5938 20.8281 93.625 22.4844 93.6562 24.2656C93.7188 26.0469 93.75 27.75 93.75 29.375C93.7812 31 93.7812 32.4844 93.75 33.8281C93.7188 35.1406 93.6406 36.1094 93.5156 36.7344C93.0781 38.7031 92.2656 40.2969 91.0781 41.5156C89.8906 42.7656 88.3281 43.4375 86.3906 43.5312C84.0469 43.625 82.1875 43.4062 80.8125 42.875C79.4688 42.3438 78.4219 41.6875 77.6719 40.9062C76.9219 40.1562 76.3594 39.3906 75.9844 38.6094C75.6094 37.8281 75.2188 37.2344 74.8125 36.8281C74.4375 36.4844 74.0625 36.1562 73.6875 35.8438C73.3438 35.5938 72.9844 35.3438 72.6094 35.0938C72.2656 34.8438 71.9219 34.6875 71.5781 34.625C72.4844 34.6562 73.2969 34.6719 74.0156 34.6719C74.7344 34.6719 75.3438 34.6719 75.8438 34.6719C76.4062 34.6719 76.9062 34.6562 77.3438 34.625H78.8438H83.1094C82.4844 34.8125 82.0156 35.0156 81.7031 35.2344C81.3906 35.4844 81.1719 35.7344 81.0469 35.9844C80.9219 36.2656 80.8594 36.5469 80.8594 36.8281C80.9844 37.5781 81.3906 38.125 82.0781 38.4688C82.7656 38.8125 83.7031 39.0156 84.8906 39.0781C86.0469 39.1406 86.8438 39.1094 87.2812 38.9844C87.7188 38.8906 88.0625 38.7031 88.3125 38.4219C88.8125 37.6719 89.2344 36.7031 89.5781 35.5156C89.8281 34.5156 90 33.2188 90.0938 31.625C90.2188 30 90.0781 28.0156 89.6719 25.6719C88.6719 27.0469 87.5156 28.0781 86.2031 28.7656C84.8906 29.4531 83.6406 29.9531 82.4531 30.2656C81.0469 30.6094 79.625 30.7812 78.1875 30.7812C74.4062 30.625 71.5781 29.75 69.7031 28.1562C67.8281 26.5625 66.9688 24.4219 67.125 21.7344C67.2188 20.3906 67.625 19.0469 68.3438 17.7031C69.0938 16.3594 70.0625 15.1562 71.25 14.0938C72.4688 13.0312 73.8594 12.1875 75.4219 11.5625C76.9844 10.9375 78.6094 10.6719 80.2969 10.7656C81.5781 10.8906 82.7812 11.125 83.9062 11.4688C84.875 11.7812 85.8281 12.2188 86.7656 12.7812C87.7344 13.3438 88.4688 14.125 88.9688 15.125ZM74.0625 19.8125C73.875 21.0312 73.9531 22.1719 74.2969 23.2344C74.6719 24.2969 75.1875 25.2188 75.8438 26C76.5 26.75 77.2344 27.3438 78.0469 27.7812C78.8594 28.1875 79.625 28.375 80.3438 28.3438C81.8438 28.3125 83.1406 27.6406 84.2344 26.3281C85.3281 24.9844 85.9844 22.9844 86.2031 20.3281C86.2969 19.0156 86.125 17.8906 85.6875 16.9531C85.2812 15.9844 84.7656 15.2031 84.1406 14.6094C83.5156 14.0156 82.8594 13.5938 82.1719 13.3438C81.4844 13.0938 80.9375 12.9844 80.5312 13.0156C79.9688 13.0781 79.3438 13.25 78.6562 13.5312C78 13.7812 77.3594 14.1719 76.7344 14.7031C76.1094 15.2031 75.5469 15.875 75.0469 16.7188C74.5781 17.5625 74.25 18.5938 74.0625 19.8125ZM97.2188 14.0469L105.844 14.1406C105.344 16.0469 104.969 17.6719 104.719 19.0156C104.5 20.3594 104.359 21.4844 104.297 22.3906C104.172 23.4219 104.141 24.2969 104.203 25.0156C104.297 25.6719 104.453 26.375 104.672 27.125C104.859 27.75 105.141 28.4688 105.516 29.2812C105.891 30.0938 106.391 30.9062 107.016 31.7188C106.641 31.5938 106.234 31.5 105.797 31.4375C105.359 31.375 104.953 31.3281 104.578 31.2969C104.141 31.2656 103.703 31.2656 103.266 31.2969C102.828 31.3281 102.344 31.375 101.812 31.4375C101.375 31.5 100.844 31.5781 100.219 31.6719C99.5938 31.7656 98.9375 31.8906 98.25 32.0469C98.7188 30.6406 99.0781 29.4219 99.3281 28.3906C99.6094 27.3594 99.8125 26.5 99.9375 25.8125C100.062 25 100.141 24.3438 100.172 23.8438C100.172 23.2188 100.172 22.5156 100.172 21.7344C100.172 20.9219 100.172 20.1406 100.172 19.3906C100.172 18.6406 100.156 17.9844 100.125 17.4219C100.094 16.8281 100.031 16.4531 99.9375 16.2969L99.4688 15.8281C99.2812 15.6719 99 15.4531 98.625 15.1719C98.2812 14.8594 97.8125 14.4844 97.2188 14.0469ZM100.547 6.82812C101.203 6.48438 101.859 6.39062 102.516 6.54688C103.203 6.70312 103.734 7 104.109 7.4375C104.484 7.875 104.609 8.39062 104.484 8.98438C104.391 9.57812 103.891 10.1562 102.984 10.7188C102.078 11.25 101.281 11.4375 100.594 11.2812C99.9062 11.125 99.4219 10.7969 99.1406 10.2969C98.8594 9.79688 98.8125 9.21875 99 8.5625C99.1875 7.875 99.7031 7.29688 100.547 6.82812ZM134.906 18.3594C134.531 18.2969 134.062 18.25 133.5 18.2188C132.969 18.1875 132.453 18.1719 131.953 18.1719C131.391 18.1719 130.797 18.1875 130.172 18.2188C129.516 18.25 128.859 18.2812 128.203 18.3125C127.641 18.3438 127 18.3906 126.281 18.4531C125.594 18.4844 124.922 18.5312 124.266 18.5938C124.516 18.4688 124.734 18.2969 124.922 18.0781C125.141 17.8594 125.328 17.6406 125.484 17.4219C125.641 17.1719 125.781 16.9062 125.906 16.625C126.062 16.1562 126.047 15.5938 125.859 14.9375C125.672 14.25 125.328 13.625 124.828 13.0625C124.359 12.5 123.75 12.0625 123 11.75C122.281 11.4062 121.484 11.3281 120.609 11.5156C119.672 11.7344 118.828 12.0625 118.078 12.5C117.359 12.9375 116.75 13.5469 116.25 14.3281C115.781 15.0781 115.438 16.0156 115.219 17.1406C115.031 18.2344 114.984 19.5469 115.078 21.0781C115.203 22.9844 115.516 24.5 116.016 25.625C116.516 26.75 117.125 27.5938 117.844 28.1562C118.562 28.7188 119.344 29.0625 120.188 29.1875C121.062 29.2812 121.922 29.2812 122.766 29.1875C123.359 29.0625 123.906 28.7969 124.406 28.3906C124.812 28.0469 125.188 27.5469 125.531 26.8906C125.875 26.2344 126.031 25.3281 126 24.1719L131.719 23.9375C131.062 25.7812 130.266 27.25 129.328 28.3438C128.391 29.4062 127.484 30.2344 126.609 30.8281C125.578 31.5156 124.547 31.9844 123.516 32.2344C122.234 32.4531 121.094 32.5469 120.094 32.5156C119.094 32.4531 118.188 32.2969 117.375 32.0469C116.562 31.7969 115.812 31.4844 115.125 31.1094C114.438 30.7344 113.781 30.3281 113.156 29.8906C112.75 29.6094 112.297 29.1406 111.797 28.4844C111.297 27.8281 110.828 27.0469 110.391 26.1406C109.953 25.2031 109.594 24.1719 109.312 23.0469C109.031 21.9219 108.922 20.7656 108.984 19.5781C109.047 18.3594 109.328 17.1406 109.828 15.9219C110.328 14.7031 111.125 13.5312 112.219 12.4062C113.875 10.7188 115.641 9.625 117.516 9.125C119.422 8.59375 121.219 8.45312 122.906 8.70312C124.594 8.92188 126.094 9.40625 127.406 10.1562C128.719 10.9062 129.641 11.7188 130.172 12.5938C130.703 13.4688 131.094 14.1406 131.344 14.6094C131.625 15.0469 131.828 15.3906 131.953 15.6406C132.109 15.8594 132.234 16.0312 132.328 16.1562C132.453 16.25 132.625 16.3906 132.844 16.5781C133 16.7344 133.188 16.9062 133.406 17.0938C133.594 17.25 133.812 17.4375 134.062 17.6562C134.312 17.875 134.594 18.1094 134.906 18.3594ZM149.812 1.01562C150.719 1.17188 151.516 1.28125 152.203 1.34375C152.922 1.40625 153.516 1.45313 153.984 1.48438C154.547 1.51562 155.031 1.53125 155.438 1.53125C155.844 1.53125 156.422 1.5 157.172 1.4375C157.797 1.375 158.609 1.29688 159.609 1.20312C160.641 1.10938 161.906 0.953125 163.406 0.734375C162.969 0.859375 162.562 1.21875 162.188 1.8125C161.844 2.375 161.531 2.98438 161.25 3.64062C160.906 4.42187 160.609 5.28125 160.359 6.21875C160.141 7.0625 159.859 8.21875 159.516 9.6875C159.203 11.1562 158.891 12.75 158.578 14.4688C158.297 16.1875 158.078 17.9375 157.922 19.7188C157.766 21.4688 157.734 23.0781 157.828 24.5469C157.953 26.0156 158.25 27.2344 158.719 28.2031C159.188 29.1406 159.906 29.6406 160.875 29.7031C162.344 29.8281 163.562 29.8438 164.531 29.75C165.531 29.625 166.344 29.4531 166.969 29.2344C167.594 29.0156 168.078 28.7656 168.422 28.4844C168.766 28.1719 169.031 27.875 169.219 27.5938C169.719 26.875 170.234 25.9531 170.766 24.8281C171.297 23.7031 171.766 22.625 172.172 21.5938C172.609 20.5625 172.969 19.6875 173.25 18.9688C173.531 18.25 173.672 17.9062 173.672 17.9375C173.672 18 173.656 18.3594 173.625 19.0156C173.625 19.6406 173.609 20.4062 173.578 21.3125C173.578 22.1875 173.562 23.1094 173.531 24.0781C173.531 25.0469 173.516 25.875 173.484 26.5625C173.453 27.125 173.422 27.75 173.391 28.4375C173.359 29.0312 173.328 29.7344 173.297 30.5469C173.297 31.3594 173.266 32.25 173.203 33.2188C171.891 33.125 170.641 33.0625 169.453 33.0312C168.266 33 167.219 32.9844 166.312 32.9844C165.25 32.9844 164.266 33 163.359 33.0312C162.391 33.0625 161.266 33.1094 159.984 33.1719C158.891 33.2344 157.531 33.3125 155.906 33.4062C154.281 33.4688 152.406 33.5625 150.281 33.6875C150.531 33.25 150.734 32.8438 150.891 32.4688C151.078 32.0938 151.219 31.7812 151.312 31.5312C151.438 31.2188 151.516 30.9531 151.547 30.7344C151.734 29.7344 151.891 28.4688 152.016 26.9375C152.141 25.375 152.234 23.7188 152.297 21.9688C152.391 20.2188 152.438 18.4375 152.438 16.625C152.469 14.7812 152.469 13.0781 152.438 11.5156C152.406 9.95312 152.344 8.59375 152.25 7.4375C152.188 6.28125 152.094 5.48438 151.969 5.04688C151.812 4.54688 151.625 4.04687 151.406 3.54688C151.219 3.10937 150.984 2.67188 150.703 2.23438C150.453 1.76562 150.156 1.35938 149.812 1.01562ZM176.297 14.0469L184.922 14.1406C184.422 16.0469 184.047 17.6719 183.797 19.0156C183.578 20.3594 183.438 21.4844 183.375 22.3906C183.25 23.4219 183.219 24.2969 183.281 25.0156C183.375 25.6719 183.531 26.375 183.75 27.125C183.938 27.75 184.219 28.4688 184.594 29.2812C184.969 30.0938 185.469 30.9062 186.094 31.7188C185.719 31.5938 185.312 31.5 184.875 31.4375C184.438 31.375 184.031 31.3281 183.656 31.2969C183.219 31.2656 182.781 31.2656 182.344 31.2969C181.906 31.3281 181.422 31.375 180.891 31.4375C180.453 31.5 179.922 31.5781 179.297 31.6719C178.672 31.7656 178.016 31.8906 177.328 32.0469C177.797 30.6406 178.156 29.4219 178.406 28.3906C178.688 27.3594 178.891 26.5 179.016 25.8125C179.141 25 179.219 24.3438 179.25 23.8438C179.25 23.2188 179.25 22.5156 179.25 21.7344C179.25 20.9219 179.25 20.1406 179.25 19.3906C179.25 18.6406 179.234 17.9844 179.203 17.4219C179.172 16.8281 179.109 16.4531 179.016 16.2969L178.547 15.8281C178.359 15.6719 178.078 15.4531 177.703 15.1719C177.359 14.8594 176.891 14.4844 176.297 14.0469ZM179.625 6.82812C180.281 6.48438 180.938 6.39062 181.594 6.54688C182.281 6.70312 182.812 7 183.188 7.4375C183.562 7.875 183.688 8.39062 183.562 8.98438C183.469 9.57812 182.969 10.1562 182.062 10.7188C181.156 11.25 180.359 11.4375 179.672 11.2812C178.984 11.125 178.5 10.7969 178.219 10.2969C177.938 9.79688 177.891 9.21875 178.078 8.5625C178.266 7.875 178.781 7.29688 179.625 6.82812ZM187.781 2.09375C188.5 2.28125 189.156 2.42188 189.75 2.51562C190.375 2.57813 190.906 2.625 191.344 2.65625C191.875 2.6875 192.359 2.70312 192.797 2.70312C193.234 2.70312 193.781 2.67188 194.438 2.60938C195.594 2.51562 197.234 2.28125 199.359 1.90625C199.016 2.15625 198.688 2.40625 198.375 2.65625C198.094 2.875 197.844 3.09375 197.625 3.3125L196.922 4.01562C196.516 4.57812 196.109 5.53125 195.703 6.875C195.359 8.03125 194.984 9.65625 194.578 11.75C194.203 13.8438 193.859 16.625 193.547 20.0938C195.078 18.5938 196.516 17.4688 197.859 16.7188C199.234 15.9375 200.438 15.375 201.469 15.0312C202.688 14.6562 203.797 14.4531 204.797 14.4219C206.078 14.5156 207.188 14.7812 208.125 15.2188C209.094 15.625 209.906 16.125 210.562 16.7188C211.25 17.2812 211.797 17.875 212.203 18.5C212.641 19.0938 212.969 19.625 213.188 20.0938C213.312 20.4062 213.406 20.9844 213.469 21.8281C213.562 22.6406 213.578 23.5781 213.516 24.6406C213.453 25.7031 213.281 26.8281 213 28.0156C212.75 29.1719 212.328 30.25 211.734 31.25C211.172 32.2188 210.422 33.0312 209.484 33.6875C208.578 34.3438 207.438 34.7031 206.062 34.7656C204.469 34.7656 202.922 34.5781 201.422 34.2031C200.141 33.8906 198.781 33.3438 197.344 32.5625C195.938 31.75 194.734 30.5938 193.734 29.0938C193.734 29.4688 193.734 29.8438 193.734 30.2188C193.734 30.5625 193.75 30.8594 193.781 31.1094C193.812 31.4531 193.844 31.75 193.875 32C193.906 32.2812 193.984 32.5781 194.109 32.8906C194.203 33.1406 194.344 33.4531 194.531 33.8281C194.75 34.1719 195.031 34.5156 195.375 34.8594C195.031 34.8281 194.688 34.8125 194.344 34.8125C194 34.7812 193.656 34.7812 193.312 34.8125C192.938 34.8438 192.562 34.875 192.188 34.9062C191.812 34.9375 191.422 34.9844 191.016 35.0469C190.672 35.1094 190.266 35.1875 189.797 35.2812C189.328 35.375 188.844 35.4844 188.344 35.6094C188.438 35.3281 188.516 34.9219 188.578 34.3906C188.641 33.8281 188.703 33.2188 188.766 32.5625C188.859 31.875 188.922 31.1562 188.953 30.4062C189.016 29.6562 189.078 28.9062 189.141 28.1562C189.266 26.4375 189.375 24.5625 189.469 22.5312C189.562 19.375 189.578 16.4375 189.516 13.7188C189.484 12.5625 189.422 11.3906 189.328 10.2031C189.266 9.01562 189.172 7.90625 189.047 6.875C188.922 5.8125 188.75 4.875 188.531 4.0625C188.344 3.21875 188.094 2.5625 187.781 2.09375ZM193.875 24.9219C194.375 25.8281 194.906 26.6094 195.469 27.2656C196.031 27.8906 196.594 28.4219 197.156 28.8594C197.719 29.2969 198.266 29.6406 198.797 29.8906C199.359 30.1406 199.891 30.3281 200.391 30.4531C201.547 30.7656 202.688 30.7969 203.812 30.5469C204.938 30.2344 205.812 29.6094 206.438 28.6719C207.062 27.7344 207.547 26.6719 207.891 25.4844C208.047 24.9219 208.141 24.2031 208.172 23.3281C208.234 22.4531 208.141 21.6094 207.891 20.7969C207.672 19.9531 207.266 19.2188 206.672 18.5938C206.078 17.9375 205.219 17.5469 204.094 17.4219C203.312 17.4219 202.406 17.6406 201.375 18.0781C200.469 18.4531 199.391 19.0781 198.141 19.9531C196.891 20.7969 195.469 22.0625 193.875 23.75V24.9219ZM215.25 12.5469C215.844 12.5781 216.375 12.5938 216.844 12.5938C217.344 12.5625 217.766 12.5312 218.109 12.5C218.516 12.4688 218.875 12.4375 219.188 12.4062C219.656 12.3438 220.141 12.2656 220.641 12.1719C221.078 12.1094 221.531 12.0312 222 11.9375C222.5 11.8125 222.984 11.6719 223.453 11.5156C223.266 11.9844 223.109 12.3906 222.984 12.7344C222.859 13.0781 222.766 13.375 222.703 13.625C222.609 13.9062 222.562 14.1406 222.562 14.3281C222.531 14.5469 222.516 14.8125 222.516 15.125C222.484 15.6562 222.484 16.5156 222.516 17.7031C224.141 16.2969 225.5 15.2031 226.594 14.4219C227.719 13.6406 228.609 13.0312 229.266 12.5938C230.047 12.0938 230.656 11.7656 231.094 11.6094C232.25 11.4219 233.266 11.6875 234.141 12.4062C234.516 12.7188 234.875 13.1406 235.219 13.6719C235.562 14.1719 235.859 14.8438 236.109 15.6875C236.359 16.5312 236.547 17.5469 236.672 18.7344C236.797 19.8906 236.812 21.2812 236.719 22.9062C236.062 22.9688 235.469 23.0312 234.938 23.0938C234.438 23.1562 234.016 23.2031 233.672 23.2344C233.266 23.2969 232.891 23.3281 232.547 23.3281L231.281 23.4688C230.844 23.5312 230.297 23.5938 229.641 23.6562C229.016 23.6875 228.25 23.75 227.344 23.8438C228.656 22.7812 229.5 21.8594 229.875 21.0781C230.281 20.2656 230.453 19.5938 230.391 19.0625C230.328 18.4688 230.047 17.9531 229.547 17.5156C228.953 17.1719 228.312 17.0469 227.625 17.1406C227.031 17.2031 226.344 17.4688 225.562 17.9375C224.781 18.4062 223.953 19.2812 223.078 20.5625C223.141 22.5625 223.203 24.2188 223.266 25.5312C223.359 26.8438 223.438 27.9062 223.5 28.7188C223.594 29.6562 223.672 30.3906 223.734 30.9219C223.828 31.3906 224.016 31.8906 224.297 32.4219C224.516 32.8594 224.828 33.3438 225.234 33.875C225.641 34.4062 226.172 34.9375 226.828 35.4688C225.453 35.4062 224.328 35.4062 223.453 35.4688C222.922 35.5 222.453 35.5312 222.047 35.5625C221.609 35.625 221.141 35.6875 220.641 35.75C220.203 35.8125 219.688 35.875 219.094 35.9375C218.531 36.0312 217.906 36.125 217.219 36.2188C217.469 35.875 217.672 35.4688 217.828 35C217.984 34.5625 218.109 34.1406 218.203 33.7344C218.328 33.2656 218.422 32.7812 218.484 32.2812C218.516 31.8438 218.531 31.1875 218.531 30.3125C218.562 29.4375 218.547 28.4531 218.484 27.3594C218.453 26.2344 218.406 25.0781 218.344 23.8906C218.281 22.6719 218.203 21.5312 218.109 20.4688C218.016 19.4062 217.906 18.4844 217.781 17.7031C217.688 16.8906 217.578 16.3281 217.453 16.0156C217.297 15.6406 217.109 15.2656 216.891 14.8906C216.703 14.5469 216.469 14.1875 216.188 13.8125C215.906 13.4062 215.594 12.9844 215.25 12.5469ZM242.203 16.0156C242.359 15.8281 242.453 15.4844 242.484 14.9844C242.547 14.4531 242.672 13.8594 242.859 13.2031C243.078 12.5469 243.438 11.8594 243.938 11.1406C244.438 10.4219 245.25 9.75 246.375 9.125C247.469 8.5 248.531 8.125 249.562 8C250.594 7.875 251.578 7.92188 252.516 8.14062C253.453 8.35938 254.328 8.70312 255.141 9.17188C255.984 9.64062 256.75 10.1562 257.438 10.7188C257.906 11.0938 258.281 11.6406 258.562 12.3594C258.844 13.0469 259.062 13.8281 259.219 14.7031C259.375 15.5781 259.484 16.5 259.547 17.4688C259.641 18.4062 259.703 19.3281 259.734 20.2344C259.766 21.1094 259.781 21.9219 259.781 22.6719C259.812 23.3906 259.875 23.9844 259.969 24.4531C260.094 25.1406 260.312 25.7344 260.625 26.2344C260.938 26.7031 261.281 27.1094 261.656 27.4531C262.031 27.7656 262.406 28.0156 262.781 28.2031C263.156 28.3906 263.484 28.5312 263.766 28.625C263.953 28.7188 264.125 28.7812 264.281 28.8125C264.594 28.9375 264.812 28.9375 264.938 28.8125C264.75 29.25 264.578 29.625 264.422 29.9375C264.266 30.25 264.141 30.5156 264.047 30.7344C263.922 30.9844 263.812 31.1875 263.719 31.3438C263.625 31.5312 263.516 31.7031 263.391 31.8594C263.297 32.0156 263.172 32.1875 263.016 32.375C262.859 32.5625 262.703 32.7656 262.547 32.9844C262.141 32.8281 261.75 32.6406 261.375 32.4219C261.031 32.2031 260.719 32 260.438 31.8125C260.094 31.5938 259.781 31.375 259.5 31.1562C259.219 30.9375 258.953 30.6875 258.703 30.4062C258.484 30.1562 258.25 29.8906 258 29.6094C257.781 29.3281 257.594 29.0156 257.438 28.6719C257.25 29.0781 256.797 29.6562 256.078 30.4062C255.391 31.1562 254.484 31.8438 253.359 32.4688C252.234 33.0625 250.922 33.4844 249.422 33.7344C247.953 33.9844 246.328 33.8125 244.547 33.2188C243.766 32.9688 243.031 32.6094 242.344 32.1406C241.656 31.6406 241.062 31.0469 240.562 30.3594C240.094 29.6719 239.75 28.8906 239.531 28.0156C239.344 27.1094 239.359 26.1094 239.578 25.0156C239.797 23.9219 240.188 23 240.75 22.25C241.312 21.5 241.984 20.8906 242.766 20.4219C243.547 19.9531 244.422 19.5938 245.391 19.3438C246.359 19.0938 247.359 18.9219 248.391 18.8281C249.203 18.7969 250.016 18.8438 250.828 18.9688C251.516 19.0938 252.234 19.3281 252.984 19.6719C253.734 19.9844 254.375 20.4688 254.906 21.125C254.875 19.4688 254.812 18.1562 254.719 17.1875C254.656 16.1875 254.594 15.4219 254.531 14.8906C254.406 14.2656 254.297 13.8281 254.203 13.5781C254.047 13.3594 253.875 13.1094 253.688 12.8281C253.531 12.5469 253.328 12.2969 253.078 12.0781C252.828 11.8281 252.516 11.625 252.141 11.4688C251.766 11.3125 251.328 11.25 250.828 11.2812C250.297 11.3125 249.875 11.4531 249.562 11.7031C249.25 11.9531 249 12.25 248.812 12.5938C248.656 12.9062 248.562 13.25 248.531 13.625C248.5 14 248.516 14.3281 248.578 14.6094C248.641 14.7969 248.734 15 248.859 15.2188C248.984 15.4062 249.156 15.6094 249.375 15.8281C249.594 16.0469 249.891 16.2344 250.266 16.3906C249.547 16.4844 248.906 16.5625 248.344 16.625C247.781 16.6562 247.297 16.7031 246.891 16.7656C246.422 16.8281 246.016 16.875 245.672 16.9062C245.328 16.9375 244.922 17 244.453 17.0938C244.047 17.1562 243.547 17.2344 242.953 17.3281C242.359 17.4219 241.672 17.5469 240.891 17.7031C241.078 17.4844 241.25 17.2812 241.406 17.0938C241.562 16.875 241.703 16.6875 241.828 16.5312C241.953 16.3438 242.078 16.1719 242.203 16.0156ZM249.234 21.5938C248.672 21.625 248.109 21.7656 247.547 22.0156C246.984 22.2344 246.484 22.5625 246.047 23C245.609 23.4062 245.234 23.8906 244.922 24.4531C244.641 24.9844 244.5 25.5781 244.5 26.2344C244.5 26.8906 244.656 27.4688 244.969 27.9688C245.312 28.4375 245.75 28.8281 246.281 29.1406C246.844 29.4531 247.438 29.6406 248.062 29.7031C248.719 29.7656 249.359 29.7031 249.984 29.5156C250.578 29.2969 251.141 28.9531 251.672 28.4844C252.203 27.9844 252.656 27.4531 253.031 26.8906C253.406 26.2969 253.672 25.7188 253.828 25.1562C253.984 24.5625 254 24.0781 253.875 23.7031C253.625 22.8906 253.062 22.3281 252.188 22.0156C251.312 21.6719 250.328 21.5312 249.234 21.5938ZM264 12.5469C264.594 12.5781 265.125 12.5938 265.594 12.5938C266.094 12.5625 266.516 12.5312 266.859 12.5C267.266 12.4688 267.625 12.4375 267.938 12.4062C268.406 12.3438 268.891 12.2656 269.391 12.1719C269.828 12.1094 270.281 12.0312 270.75 11.9375C271.25 11.8125 271.734 11.6719 272.203 11.5156C272.016 11.9844 271.859 12.3906 271.734 12.7344C271.609 13.0781 271.516 13.375 271.453 13.625C271.359 13.9062 271.312 14.1406 271.312 14.3281C271.281 14.5469 271.266 14.8125 271.266 15.125C271.234 15.6562 271.234 16.5156 271.266 17.7031C272.891 16.2969 274.25 15.2031 275.344 14.4219C276.469 13.6406 277.359 13.0312 278.016 12.5938C278.797 12.0938 279.406 11.7656 279.844 11.6094C281 11.4219 282.016 11.6875 282.891 12.4062C283.266 12.7188 283.625 13.1406 283.969 13.6719C284.312 14.1719 284.609 14.8438 284.859 15.6875C285.109 16.5312 285.297 17.5469 285.422 18.7344C285.547 19.8906 285.562 21.2812 285.469 22.9062C284.812 22.9688 284.219 23.0312 283.688 23.0938C283.188 23.1562 282.766 23.2031 282.422 23.2344C282.016 23.2969 281.641 23.3281 281.297 23.3281L280.031 23.4688C279.594 23.5312 279.047 23.5938 278.391 23.6562C277.766 23.6875 277 23.75 276.094 23.8438C277.406 22.7812 278.25 21.8594 278.625 21.0781C279.031 20.2656 279.203 19.5938 279.141 19.0625C279.078 18.4688 278.797 17.9531 278.297 17.5156C277.703 17.1719 277.062 17.0469 276.375 17.1406C275.781 17.2031 275.094 17.4688 274.312 17.9375C273.531 18.4062 272.703 19.2812 271.828 20.5625C271.891 22.5625 271.953 24.2188 272.016 25.5312C272.109 26.8438 272.188 27.9062 272.25 28.7188C272.344 29.6562 272.422 30.3906 272.484 30.9219C272.578 31.3906 272.766 31.8906 273.047 32.4219C273.266 32.8594 273.578 33.3438 273.984 33.875C274.391 34.4062 274.922 34.9375 275.578 35.4688C274.203 35.4062 273.078 35.4062 272.203 35.4688C271.672 35.5 271.203 35.5312 270.797 35.5625C270.359 35.625 269.891 35.6875 269.391 35.75C268.953 35.8125 268.438 35.875 267.844 35.9375C267.281 36.0312 266.656 36.125 265.969 36.2188C266.219 35.875 266.422 35.4688 266.578 35C266.734 34.5625 266.859 34.1406 266.953 33.7344C267.078 33.2656 267.172 32.7812 267.234 32.2812C267.266 31.8438 267.281 31.1875 267.281 30.3125C267.312 29.4375 267.297 28.4531 267.234 27.3594C267.203 26.2344 267.156 25.0781 267.094 23.8906C267.031 22.6719 266.953 21.5312 266.859 20.4688C266.766 19.4062 266.656 18.4844 266.531 17.7031C266.438 16.8906 266.328 16.3281 266.203 16.0156C266.047 15.6406 265.859 15.2656 265.641 14.8906C265.453 14.5469 265.219 14.1875 264.938 13.8125C264.656 13.4062 264.344 12.9844 264 12.5469ZM285.047 11.0469C285.672 11.1406 286.234 11.2188 286.734 11.2812C287.203 11.3125 287.625 11.3438 288 11.375C288.406 11.4062 288.797 11.4219 289.172 11.4219C289.516 11.4219 289.953 11.4062 290.484 11.375C290.922 11.3438 291.484 11.3125 292.172 11.2812C292.891 11.2188 293.734 11.1406 294.703 11.0469C294.641 11.1719 294.516 11.5625 294.328 12.2188C294.141 12.8438 293.953 13.625 293.766 14.5625C293.578 15.4688 293.406 16.4844 293.25 17.6094C293.125 18.7031 293.062 19.7969 293.062 20.8906C293.094 21.9531 293.234 22.9688 293.484 23.9375C293.734 24.875 294.141 25.6406 294.703 26.2344C295.891 27.4531 296.938 28.1875 297.844 28.4375C298.781 28.6875 299.594 28.6562 300.281 28.3438C300.969 28.0312 301.531 27.5625 301.969 26.9375C302.406 26.3125 302.719 25.7344 302.906 25.2031C303.375 23.7656 303.656 22.25 303.75 20.6562C303.812 19.2812 303.703 17.75 303.422 16.0625C303.141 14.375 302.469 12.6562 301.406 10.9062C302.219 10.9688 302.922 11.0156 303.516 11.0469C304.109 11.0781 304.625 11.1094 305.062 11.1406C305.562 11.1719 306 11.2031 306.375 11.2344C306.719 11.2656 307.125 11.2656 307.594 11.2344C308 11.2344 308.484 11.2188 309.047 11.1875C309.641 11.125 310.297 11.0625 311.016 11C311.141 14.0625 311.25 16.7969 311.344 19.2031C311.438 21.5781 311.5 23.6875 311.531 25.5312C311.594 27.3438 311.625 28.9219 311.625 30.2656C311.625 31.5781 311.625 32.6875 311.625 33.5938C311.594 35.75 311.5 37.1719 311.344 37.8594C311.094 38.8281 310.641 39.7969 309.984 40.7656C309.359 41.7344 308.562 42.5938 307.594 43.3438C306.625 44.125 305.5 44.7188 304.219 45.125C302.969 45.5625 301.594 45.7188 300.094 45.5938C298.625 45.4688 297.453 45.2656 296.578 44.9844C295.734 44.7344 295.062 44.4375 294.562 44.0938C294.094 43.75 293.75 43.3906 293.531 43.0156C293.344 42.6406 293.203 42.25 293.109 41.8438C293.016 41.4688 292.922 41.1094 292.828 40.7656C292.734 40.4219 292.547 40.125 292.266 39.875C291.922 39.5938 291.562 39.3125 291.188 39.0312C290.844 38.7812 290.469 38.5312 290.062 38.2812C289.688 38.0312 289.312 37.8281 288.938 37.6719L298.922 37.1094C298.641 37.4844 298.438 37.8281 298.312 38.1406C298.188 38.4531 298.109 38.7188 298.078 38.9375C298.047 39.2188 298.062 39.4531 298.125 39.6406C298.25 40.0156 298.469 40.4219 298.781 40.8594C299.125 41.3281 299.562 41.6875 300.094 41.9375C300.625 42.2188 301.25 42.3125 301.969 42.2188C302.719 42.125 303.562 41.7344 304.5 41.0469C305.281 40.4531 305.938 39.5 306.469 38.1875C306.906 37.0625 307.25 35.4844 307.5 33.4531C307.75 31.4219 307.703 28.75 307.359 25.4375C306.797 27.375 306.031 28.8594 305.062 29.8906C304.094 30.9219 303.125 31.6719 302.156 32.1406C301.031 32.7031 299.859 33 298.641 33.0312C297.016 32.9688 295.625 32.7656 294.469 32.4219C293.312 32.0469 292.359 31.5469 291.609 30.9219C290.859 30.2969 290.266 29.5625 289.828 28.7188C289.422 27.8438 289.125 26.875 288.938 25.8125C288.75 24.75 288.656 23.6875 288.656 22.625C288.656 21.5312 288.656 20.5156 288.656 19.5781C288.688 18.6406 288.703 17.7969 288.703 17.0469C288.703 16.2656 288.625 15.6406 288.469 15.1719C288.281 14.7031 288.031 14.2344 287.719 13.7656C287.469 13.3594 287.125 12.9219 286.688 12.4531C286.219 11.9531 285.672 11.4844 285.047 11.0469Z" fill="white"/>
</svg>
